<svg id="Capa_1" enable-background="new 0 0 512 512" height="512" viewBox="0 0 512 512" width="512" xmlns="http://www.w3.org/2000/svg"><g id="XMLID_1557_"><g id="XMLID_405_"><path id="XMLID_430_" d="m218 10h-208v48h208v30c0 5.523 4.477 10 10 10h56c5.523 0 10-4.477 10-10v-78z" fill="#e2e9ee"/></g><g id="XMLID_1556_"><path id="XMLID_239_" d="m294 88c0 5.523-4.477 10-10 10h-56c-5.523 0-10-4.477-10-10v-30h76z" fill="#e2e9ee"/></g><g id="XMLID_1679_"><path d="m160.671 446.608-70.292-121.75c-7.383-12.788-2.96-29.142 9.862-36.466 12.74-7.276 28.964-2.887 36.298 9.82l56.216 97.401z" fill="#f2cba9"/></g><g id="XMLID_952_"><path d="m153.745 444.436-11.281.002-86.967-86.99c-10.373-10.375-27.18-10.416-37.603-.09-10.491 10.393-10.53 27.335-.088 37.776l89.527 89.527c11.102 11.102 26.159 17.339 41.86 17.339h16.936z" fill="#f3d0b2"/></g><g id="XMLID_1552_"><path d="m135.2 446.608-99.409-99.408c-10.442-10.442-12.597-20.231-2.107-30.624 10.422-10.325 27.23-10.285 37.603.091l79.509 79.532z" fill="#f2cba9"/></g><g id="XMLID_1453_"><path id="XMLID_9_" d="m353.533 314.156c-13.528-13.986-31.356-21.165-49.309-21.558-11.232-.246-20.224-9.377-20.224-20.611v-173.987h-56v173.928c0 11.245-8.983 20.39-20.225 20.676-17.901.456-35.657 7.66-49.13 21.632-13.289 13.781-19.906 31.435-19.917 49.082l-.013-.004v111.273c0 15.14 12.274 27.414 27.414 27.414 15.141 0 27.414-12.274 27.414-27.414v-42.269c21.536 5 44.956-.179 62.584-15.556 27.817 24.266 70.067 23.172 96.559-3.32 27.467-27.466 27.852-71.366.847-99.286z" fill="#ccf5fc"/></g><g id="XMLID_1670_"><path d="m193.544 391.283h34.432l15.924-16.22c16.385-16.689 38.791-26.091 62.179-26.09 19.142 0 37.751 6.303 52.953 17.936l31.853 24.374h111.115v110.717h-308.457z" fill="#f3d0b2"/></g><g id="XMLID_431_"><path id="XMLID_434_" d="m502 492h-302.771c2.75-5.205 4.315-11.129 4.315-17.415v-20.149l67.112.001c5.522 0 10-4.477 10-10 0-5.522-4.477-10-10-10l-67.112-.001v-33.154h24.432c2.685 0 5.256-1.079 7.136-2.994l15.924-16.22c14.411-14.678 34.474-23.096 55.043-23.096 16.848 0 33.495 5.639 46.876 15.878l31.854 24.375c1.745 1.335 3.88 2.058 6.077 2.058h111.114c5.523 0 10-4.477 10-10s-4.478-10-10-10h-107.728l-11.278-8.63c2.764-23.863-5.314-47.916-22.273-65.449-14.893-15.398-34.879-24.135-56.278-24.604-5.855-.128-10.441-4.79-10.441-10.613v-37.251c0-5.523-4.477-10-10-10-5.522 0-10 4.477-10 10v37.251c0 16.516 13.46 30.247 30.004 30.608 16.098.352 31.135 6.927 42.341 18.513 9.737 10.066 15.586 22.976 16.899 36.492-16.522-12.017-36.721-18.628-57.166-18.628-25.902 0-51.167 10.601-69.314 29.085l-12.984 13.226h-30.235c-5.522 0-10 4.477-10 10v83.302c0 9.603-7.812 17.415-17.415 17.415-9.602 0-17.414-7.812-17.414-17.415 0 0 .048-108.785.034-109.18-.557-16.513 5.514-32.22 17.094-44.229 11.157-11.57 26.14-18.167 42.188-18.577 16.806-.428 29.97-13.901 29.97-30.672v-163.927h36v36.736c0 5.523 4.478 10 10 10 5.523 0 10-4.477 10-10v-39.442c5.968-3.465 10-9.911 10-17.294v-78c0-5.523-4.477-10-10-10h-284.004c-5.522 0-10 4.477-10 10s4.477 10 10 10h274v28h-274c-5.522 0-10 4.477-10 10s4.477 10 10 10h198v20c0 7.383 4.032 13.829 10 17.294v166.634c0 5.838-4.603 10.529-10.479 10.679-20.771.53-40.182 8.874-54.876 23.504l-7.444-12.898c-10.057-17.423-32.448-23.48-49.92-13.504-8.528 4.872-14.637 12.775-17.201 22.256-.564 2.086-.931 4.192-1.124 6.3-14.307-12.883-36.478-12.495-50.309 1.206-9.626 9.537-12.981 23.327-9.529 35.818-2.22 1.396-4.325 3.045-6.262 4.964-6.978 6.914-10.833 16.13-10.856 25.952s3.789 19.056 10.734 26l89.526 89.527c13.072 13.07 30.45 20.268 48.933 20.268h352.807c5.523 0 10-4.477 10-10s-4.477-10-10-10zm-218-404h-56v-20h56zm-186.614 219.187c1.165-4.307 3.94-7.898 7.814-10.111 7.936-4.533 18.109-1.781 22.679 6.134l11.552 20.017c-6.468 11.194-10.107 23.75-10.627 36.828l-15.521-15.526-14.244-24.671c-2.231-3.864-2.818-8.364-1.653-12.671zm-56.663 16.492c6.491-6.432 17.03-6.407 23.492.057l64.5 64.519v28.287l-66.146-66.163c-7.217-7.22-16.746-10.782-26.25-10.697-1.446-5.601.097-11.736 4.404-16.003zm-15.846 64.384c-3.155-3.155-4.888-7.35-4.877-11.812.01-4.462 1.762-8.649 4.932-11.79 6.491-6.432 17.03-6.408 23.492.057l80.291 80.312v29.756c0 5 .993 9.77 2.781 14.134-6.334-2.438-12.149-6.186-17.092-11.13z"/><path id="XMLID_438_" d="m338.8 248.929c-3.905 3.905-3.905 10.237 0 14.143 3.906 3.905 10.236 3.905 14.143 0 3.337-3.337 7.773-5.175 12.492-5.175s9.154 1.837 12.491 5.174c1.953 1.953 4.512 2.929 7.071 2.929s5.118-.976 7.07-2.929c3.906-3.905 3.906-10.237.001-14.142-7.114-7.115-16.572-11.033-26.634-11.033-10.061.001-19.52 3.919-26.634 11.033z"/><path id="XMLID_439_" d="m152.296 199.736c9.741 0 17.667 7.925 17.667 17.666 0 5.523 4.478 10 10 10 5.523 0 10-4.477 10-10 0-20.77-16.897-37.666-37.667-37.666-5.523 0-10 4.477-10 10s4.477 10 10 10z"/><path id="XMLID_440_" d="m332.037 206.334c5.522 0 10-4.477 10-10 0-9.742 7.926-17.667 17.667-17.667 5.522 0 10-4.477 10-10s-4.478-10-10-10c-20.77 0-37.667 16.898-37.667 37.667 0 5.522 4.478 10 10 10z"/><path id="XMLID_999_" d="m284 179.74c-2.63 0-5.21 1.06-7.07 2.92-1.86 1.87-2.93 4.44-2.93 7.08 0 2.63 1.069 5.2 2.93 7.07 1.86 1.86 4.44 2.93 7.07 2.93s5.21-1.07 7.069-2.93c1.86-1.87 2.931-4.441 2.931-7.07 0-2.64-1.07-5.21-2.931-7.08-1.859-1.86-4.439-2.92-7.069-2.92z"/></g></g></svg>