<svg id="Layer_1" enable-background="new 0 0 510.724 510.724" height="512" viewBox="0 0 510.724 510.724" width="512" xmlns="http://www.w3.org/2000/svg"><g><g><path d="m218.088 488.551-12.002-176.428-26.628-139.556c.672-1.951-.653 3.241 19.186-85.336 1.056-4.728.093-9.683-2.657-13.671l-45.539-66.037c-5.455-7.91-16.291-9.902-24.203-4.446-7.911 5.455-9.901 16.291-4.446 24.202l41.225 59.782-14.567 65.21-36.838 8.039-19.021 3.605c-1.43.271-2.8.72-4.091 1.32.036.229.071.459.071.713v23.142l26.317 138.849-9.959 160.612c-.714 11.51 8.038 21.419 19.547 22.132.441.027.877.041 1.312.041 10.941 0 20.134-8.52 20.82-19.589 10.942-177.914 10.529-166.681 10.314-169.696l9.361-1.774s9.306 158.112 10.119 171.47c.687 11.07 9.878 19.589 20.82 19.589.435 0 .872-.014 1.312-.041 11.509-.713 20.262-10.622 19.547-22.132z" fill="#f5a68c"/><g fill="#ffdc8c"><path d="m190.258 182.199c-1.888-2.198-2.306-5.238-1.398-7.99 1.306-3.957.908-8.491-1.665-12.429-3.369-5.157-9.852-7.58-15.784-5.918-3.673 1.029-6.54 3.309-8.357 6.198-1.608 2.555-4.398 4.115-7.416 4.051-2.907-.062-5.882.605-8.666 2.115-7.42 4.024-10.918 13.057-8.129 21.023 3.01 8.598 11.827 13.141 20.158 11.327 2.8-.61 5.762.351 7.694 2.467 4.893 5.361 13.129 6.844 19.794 2.819 8.088-4.884 10.195-16.183 3.769-23.663z"/><ellipse cx="212.393" cy="178.108" rx="11.022" ry="11.022" transform="matrix(.745 -.667 .667 .745 -64.649 187.117)"/><path d="m206.813 151.491c-1.864-4.214-6.791-6.119-11.005-4.255s-6.119 6.791-4.255 11.005 6.791 6.119 11.005 4.255 6.119-6.791 4.255-11.005z"/><path d="m227.959 147.201c-1.347-3.046-4.909-4.423-7.955-3.076-3.046 1.348-4.423 4.909-3.076 7.955s4.909 4.423 7.955 3.076 4.423-4.909 3.076-7.955z"/></g><g><g id="XMLID_267_"><path d="m68.949 255.335c-4.616 0-9.152-1.838-12.501-5.293-5.042-5.204-6.331-12.989-3.236-19.54l26.893-56.924c4.105-8.689 14.477-12.406 23.165-8.3 8.689 4.105 12.405 14.476 8.301 23.165l-7.138 15.108 30.404-13.406c8.815-3.829 19.062.214 22.892 9.028 3.828 8.814-.214 19.063-9.029 22.892l-72.823 31.83c-2.234.97-4.59 1.44-6.928 1.44z" fill="#ffb69e"/></g></g><path d="m164.513 105.697c-3.709-19.568-22.579-32.425-42.147-28.716s-32.425 22.579-28.716 42.147 22.579 32.425 42.147 28.716c19.569-3.71 32.425-22.579 28.716-42.147z" fill="#ffb69e"/></g><g><g><g><path d="m448.693 201.032h-24.168c-4.971 0-9-4.03-9-9s4.029-9 9-9h24.168c4.971 0 9 4.03 9 9s-4.029 9-9 9z" fill="#a5c8cd"/></g><g><path d="m417.569 212.391c-4.971 0-9-4.03-9-9v-22.718c0-4.97 4.029-9 9-9s9 4.03 9 9v22.718c0 4.97-4.029 9-9 9z" fill="#b4d7dc"/></g></g><g><path d="m422.121 510.724h-88.376c-4.971 0-9-4.03-9-9s4.029-9 9-9h88.376c10.509 0 19.059-8.55 19.059-19.059v-383.456c0-11.21-3.747-22.29-10.551-31.198-9.661-12.649-24.932-20.201-40.849-20.201h-42.651c-4.971 0-9-4.03-9-9s4.029-9 9-9h42.651c21.49 0 42.108 10.197 55.153 27.276 9.187 12.028 14.246 26.988 14.246 42.124v383.456c0 20.434-16.624 37.058-37.058 37.058z" fill="#6c9baa"/></g><path d="m315.034 2.8c-5.353-2.209-11.202 1.74-11.222 7.531-.086 24.992 8.761 46.27 26.54 63.834 4.12 4.07 11.044 2.708 13.253-2.645l14.013-33.958c3.347-8.111-.515-17.4-8.626-20.748z" fill="#b4d7dc"/><g><path d="m250.534 135.451c-2.38-2.306-2.44-6.104-.135-8.484l8.35-8.619c2.305-2.38 6.104-2.441 8.484-.135s2.44 6.104.135 8.484l-8.35 8.619c-2.298 2.373-6.097 2.448-8.484.135zm22.266-22.983c-2.38-2.306-2.44-6.104-.135-8.484l8.351-8.619c2.307-2.38 6.105-2.44 8.484-.134 2.38 2.306 2.44 6.104.135 8.484l-8.351 8.619c-2.294 2.367-6.093 2.451-8.484.134zm22.266-22.983c-2.38-2.306-2.44-6.104-.135-8.484l8.35-8.619c2.305-2.38 6.104-2.441 8.484-.135s2.44 6.104.135 8.484l-8.35 8.619c-2.298 2.373-6.097 2.448-8.484.135z" fill="#64afff"/></g><g><path d="m221.264 84.004c-1.427-2.99-.16-6.572 2.831-7.999l10.83-5.168c2.99-1.428 6.571-.16 7.999 2.831 1.427 2.99.16 6.572-2.831 7.999l-10.83 5.168c-3.016 1.439-6.583.134-7.999-2.831zm28.881-13.782c-1.427-2.99-.16-6.572 2.831-7.999l10.83-5.168c2.99-1.427 6.571-.16 7.999 2.831 1.427 2.99.16 6.572-2.831 7.999l-10.83 5.168c-3.016 1.439-6.584.135-7.999-2.831zm28.88-13.782c-1.427-2.991-.159-6.572 2.831-7.999l10.83-5.168c2.989-1.427 6.571-.16 7.999 2.831 1.427 2.991.159 6.572-2.831 7.999l-10.83 5.168c-2.972 1.419-6.562.18-7.999-2.831z" fill="#64afff"/></g><g><path d="m205.804 31.153c-.401-3.289 1.939-6.281 5.229-6.683l11.911-1.455c3.286-.398 6.281 1.938 6.684 5.228.401 3.289-1.939 6.281-5.229 6.683l-11.911 1.455c-3.305.402-6.283-1.951-6.684-5.228zm31.764-3.88c-.401-3.289 1.939-6.281 5.229-6.683l11.912-1.455c3.287-.4 6.281 1.939 6.684 5.229.401 3.289-1.939 6.281-5.229 6.683l-11.912 1.455c-3.311.402-6.284-1.957-6.684-5.229zm31.765-3.879c-.401-3.289 1.939-6.281 5.229-6.683l11.911-1.455c3.29-.398 6.281 1.938 6.684 5.228.401 3.289-1.939 6.281-5.229 6.683l-11.911 1.455c-3.312.403-6.284-1.957-6.684-5.228z" fill="#64afff"/></g></g></g></svg>