<svg id="Capa_1" enable-background="new 0 0 512 512" height="512" viewBox="0 0 512 512" width="512" xmlns="http://www.w3.org/2000/svg"><g><g><path d="m301.155 425.052h-38.893v-56.028h38.893c2.761 0 5 2.239 5 5v46.028c0 2.761-2.239 5-5 5z" fill="#4a80aa"/></g><g><path d="m301.153 369.023h-15.968v30.056c0 2.763-2.24 5.002-5.002 5.002h-17.921v20.97h38.891c2.763 0 5.002-2.239 5.002-5.002v-46.024c0-2.762-2.24-5.002-5.002-5.002z" fill="#407093"/></g><g><path d="m83.174 258.331h189.135v217.912h-189.135z" fill="#4a80aa"/></g><g><path d="m237.285 258.331v91.447c0 38.3-31.048 69.348-69.348 69.348h-84.763v57.117h189.135v-217.912z" fill="#407093"/></g><g><path d="m62.872 56.746h232.561v201.585h-232.561z" fill="#e7ecf6"/></g><g><path d="m62.872 56.746v27.16c9.312-2.773 19.174-4.269 29.386-4.269h34.392c56.784 0 102.817 46.032 102.817 102.817v75.877h65.966v-201.585z" fill="#d8e2f1"/></g><g><path d="m466.077 176.044-51.15-51.15c-5.079-5.079-13.313-5.079-18.392 0l-32.54 32.54c-5.079 5.079-5.079 13.313 0 18.392l31.495 31.495c5.066 5.066 7.911 11.936 7.911 19.1v57.581c0 4.42 3.583 8.003 8.003 8.003h25.502c4.42 0 8.003-3.583 8.003-8.003v-57.209c0-7.164 2.846-14.034 7.911-19.1l13.257-13.257c5.079-5.079 5.079-13.313 0-18.392z" fill="#dd636e"/></g><g><path d="m466.077 176.044-51.151-51.151c-5.079-5.079-13.313-5.079-18.392 0l-4.332 4.332 46.819 46.819c5.079 5.079 5.079 13.313 0 18.392l-13.257 13.257c-5.066 5.066-7.911 11.936-7.911 19.1v57.209c0 4.158-3.171 7.573-7.226 7.964.256.025.515.039.777.039h25.502c4.42 0 8.003-3.583 8.003-8.003v-57.209c0-7.164 2.846-14.034 7.911-19.1l13.257-13.257c5.079-5.079 5.079-13.313 0-18.392z" fill="#da4a54"/></g><g><circle cx="177.741" cy="225.144" fill="#365e7d" r="49.21"/></g><g><path d="m177.742 175.935c-5.295 0-10.391.846-15.171 2.394 19.752 6.396 34.039 24.933 34.039 46.816s-14.287 40.419-34.039 46.815c4.78 1.548 9.875 2.394 15.171 2.394 27.178 0 49.21-22.032 49.21-49.21s-22.033-49.209-49.21-49.209z" fill="#2b4d66"/></g><g><path d="m283.347 7.503h-211.211c-16.575 0-30.012 13.437-30.012 30.012v224.478c0 16.575 13.437 30.012 30.012 30.012h211.211c16.575 0 30.012-13.437 30.012-30.012v-224.478c0-16.575-13.437-30.012-30.012-30.012zm-2.788 203.541c0 5.525-4.479 10.004-10.004 10.004h-185.627c-5.525 0-10.004-4.479-10.004-10.004v-28.591c0-56.784 46.033-102.817 102.817-102.817 56.784 0 102.817 46.032 102.817 102.817v28.591z" fill="#dd636e"/></g><g><g><path d="m283.347 7.503h-14.436v127.385c7.436 14.225 11.648 30.402 11.648 47.565v28.591c0 5.525-4.479 10.004-10.004 10.004h-1.855c-1.737 14.923-14.413 26.508-29.802 26.508h-196.774v14.436c0 16.575 13.437 30.012 30.012 30.012h211.211c16.575 0 30.012-13.437 30.012-30.012v-224.477c0-16.575-13.437-30.012-30.012-30.012z" fill="#da4a54"/></g></g><g><path d="m308.359 504.496h-261.235c-2.761 0-5-2.239-5-5v-39.088c0-2.761 2.239-5 5-5h261.236c2.761 0 5 2.239 5 5v39.088c-.001 2.762-2.239 5-5.001 5z" fill="#4a80aa"/></g><g><path d="m308.357 455.409h-14.719v24.364c0 2.763-2.239 5.002-5.002 5.002h-246.512v14.719c0 2.763 2.239 5.002 5.002 5.002h261.232c2.763 0 5.002-2.239 5.002-5.002v-39.084c-.001-2.762-2.24-5.001-5.003-5.001z" fill="#407093"/></g><g><path d="m436.906 299.508c8.55 0 15.506-6.956 15.506-15.506v-57.209c0-5.211 2.029-10.111 5.713-13.794l13.257-13.257c7.995-7.995 7.995-21.007 0-29.003 0 0 0 0 0-.001l-51.152-51.151c-7.993-7.993-21.004-7.993-29.003 0l-7.334 7.335-20.095-20.096c-7.867-7.866-18.328-12.199-29.453-12.199h-13.483v-57.112c0-20.686-16.829-37.515-37.515-37.515h-211.211c-20.686 0-37.515 16.829-37.515 37.515v224.477c0 20.686 16.829 37.515 37.515 37.515h3.535v148.397h-28.545c-6.895 0-12.505 5.61-12.505 12.505v39.084c0 6.895 5.61 12.505 12.505 12.505h54.913c4.144 0 7.503-3.359 7.503-7.503s-3.359-7.503-7.503-7.503h-52.412v-34.082h256.23v34.082h-165.49c-4.144 0-7.503 3.359-7.503 7.503s3.359 7.503 7.503 7.503h167.99c6.895 0 12.505-5.61 12.505-12.505v-39.084c0-6.895-5.61-12.505-12.505-12.505h-28.546v-15.351h21.342c6.895 0 12.505-5.61 12.505-12.505v-17.222h7.879c22.857 0 41.452 18.595 41.452 41.452v6.377c0 28.135 22.89 51.026 51.026 51.026s51.026-22.89 51.026-51.026c0-6.261-1.153-12.395-3.425-18.227l-14.092-36.181c-10.945-28.099-16.494-57.637-16.494-87.792v-8.949h5.876zm-35.067-169.309c1.073-1.073 2.482-1.609 3.891-1.609s2.819.536 3.89 1.609l51.151 51.15c2.145 2.145 2.145 5.637 0 7.781l-13.257 13.257c-6.518 6.518-10.108 15.186-10.108 24.405v57.209c0 .275-.225.5-.5.5h-25.503c-.276 0-.5-.225-.5-.5v-57.581c0-9.219-3.59-17.886-10.109-24.405l-31.495-31.494c-2.145-2.145-2.145-5.637 0-7.781zm-34.089 59.996 14.993 14.993-14.644 24.139c-2.149 3.542-1.02 8.157 2.523 10.306 3.485 2.13 8.144 1.051 10.306-2.523l12.37-20.391c1.684 2.923 2.598 6.239 2.598 9.703v32.238h-45.484c-.524 0-.873-.25-1.075-.459-.206-.215-.448-.585-.427-1.128 1.454-36.822 11.635-57.047 18.84-66.878zm-277.073 257.71v-148.397h112.997c4.144 0 7.503-3.359 7.503-7.503s-3.359-7.503-7.503-7.503h-131.538c-12.411 0-22.509-10.098-22.509-22.509v-224.478c0-12.411 10.098-22.509 22.509-22.509h211.211c12.411 0 22.509 10.098 22.509 22.509v224.477c0 12.411-10.098 22.509-22.509 22.509h-40.751c-4.144 0-7.503 3.359-7.503 7.503s3.359 7.503 7.503 7.503h22.209v148.397h-174.128zm207.975-30.357h-18.841v-41.023h18.841zm134.89-15.854 14.092 36.182c1.593 4.09 2.401 8.39 2.401 12.781 0 19.862-16.158 36.02-36.02 36.02s-36.02-16.158-36.02-36.02v-6.377c0-31.132-25.327-56.459-56.459-56.459h-7.879v-13.797c0-6.895-5.61-12.505-12.505-12.505h-21.342v-62.012h3.536c20.686 0 37.515-16.829 37.515-37.515v-152.36h13.483c7.117 0 13.809 2.772 18.843 7.804l20.095 20.096-14.596 14.596c-7.431 7.432-7.944 19.19-1.562 27.234-9.377 11.855-21.552 35.135-23.209 77.116-.177 4.474 1.501 8.892 4.603 12.119 3.14 3.267 7.363 5.067 11.893 5.067h45.484v10.337c0 8.55 6.956 15.506 15.506 15.506h4.621v8.949c.002 32.027 5.896 63.396 17.52 93.238z"/><path d="m288.062 211.044v-28.591c0-60.83-49.49-110.32-110.32-110.32-18.715 0-37.206 4.773-53.473 13.804-3.623 2.012-4.929 6.579-2.918 10.202 2.013 3.624 6.578 4.928 10.202 2.918 14.045-7.797 30.016-11.919 46.189-11.919 52.557 0 95.314 42.758 95.314 95.314v28.591c0 1.379-1.122 2.501-2.501 2.501h-37.293c-2.442-11.868-8.505-22.266-16.958-30.082l20.607-19.014c3.045-2.81 3.237-7.557.426-10.602-2.809-3.044-7.556-3.237-10.602-.426l-23.023 21.244c-7.791-3.99-16.621-6.233-25.969-6.233-27.308 0-50.155 18.998-55.519 45.113h-37.296c-1.379 0-2.501-1.122-2.501-2.501v-28.591c0-23.119 8.38-45.415 23.596-62.781 2.732-3.117 2.418-7.857-.699-10.587-3.117-2.732-7.857-2.419-10.587.699-17.615 20.104-27.316 45.912-27.316 72.67v28.591c0 9.653 7.854 17.507 17.507 17.507h185.627c9.653 0 17.507-7.853 17.507-17.507zm-110.32-27.606c18.967 0 35.057 12.511 40.082 30.107h-80.169c5.015-17.606 21.085-30.107 40.087-30.107z"/></g></g></svg>