<svg id="Capa_1" enable-background="new 0 0 512 512" height="512" viewBox="0 0 512 512" width="512" xmlns="http://www.w3.org/2000/svg"><g><g><path d="m114.275 112.29c-5.141.105-9.337-4.09-9.232-9.232.05-2.463-.906-4.841-2.648-6.583l-54.005-54.005c-3.89-3.89-10.198-3.89-14.088 0l-26.366 26.366c-3.89 3.89-3.89 10.198 0 14.088l54.005 54.005c1.742 1.742 4.12 2.699 6.583 2.648 5.141-.105 9.337 4.09 9.232 9.232-.05 2.463.906 4.841 2.648 6.583l219.213 219.213 40.454-40.454-219.213-219.213c-1.742-1.742-4.12-2.698-6.583-2.648z" fill="#ddeafb"/></g><g><path d="m120.858 114.938c-1.742-1.742-4.12-2.699-6.583-2.648-5.142.105-9.337-4.09-9.232-9.232.05-2.463-.906-4.841-2.648-6.583l-54.005-54.005c-3.89-3.89-10.198-3.89-14.088 0l-15.129 15.129c3.89-3.89 10.198-3.89 14.088 0l54.005 54.005c1.742 1.742 2.699 4.12 2.648 6.583-.105 5.141 4.09 9.337 9.232 9.232 2.463-.05 4.841.906 6.583 2.648l219.213 219.213 15.129-15.129z" fill="#cbe2ff"/></g><g><path d="m500.51 99.857c-.969-3.53-5.36-4.729-7.948-2.141l-60.667 60.667c-5.561 5.561-14.578 5.561-20.139 0l-47.43-47.43c-5.561-5.561-5.561-14.578 0-20.139l60.667-60.667c2.588-2.588 1.389-6.979-2.141-7.948-37.282-10.236-78.853-.711-108.146 28.582-30.604 30.604-39.631 74.611-27.088 113.126.548 1.683.084 3.532-1.168 4.784l-172.38 172.378c-1.913 1.913-3.554 4.082-4.874 6.444l-12.88 23.037c-4.1 7.334-11.142 12.564-19.348 14.37l-.257.057c-5.482 1.206-10.505 3.957-14.474 7.926l-30.517 30.517c-3.708 3.708-3.708 9.719 0 13.426l54.143 54.143c3.708 3.708 9.719 3.708 13.426 0l30.674-30.674c3.969-3.969 6.72-8.992 7.926-14.474 1.806-8.206 7.036-15.248 14.37-19.348l22.582-12.625c2.362-1.32 4.53-2.961 6.444-4.874l172.734-172.734c1.252-1.252 3.1-1.716 4.783-1.168 38.515 12.543 82.522 3.516 113.126-27.089 29.293-29.293 38.818-70.864 28.582-108.146z" fill="#ecf4ff"/></g><g><g><path d="m500.51 99.857c-.969-3.53-5.36-4.729-7.948-2.141l-.43.43c-.354 27.976-11.19 55.843-32.537 77.189-30.604 30.604-74.611 39.631-113.126 27.089-1.683-.548-3.532-.084-4.783 1.168l-172.734 172.733c-1.913 1.913-4.082 3.554-6.444 4.874l-22.582 12.625c-7.334 4.1-12.564 11.142-14.37 19.348-1.206 5.482-3.957 10.505-7.926 14.474l-47.555 47.555 15.787 15.787c3.708 3.708 9.719 3.707 13.426 0l30.674-30.674c3.969-3.969 6.72-8.992 7.926-14.474 1.806-8.206 7.036-15.248 14.37-19.348l22.582-12.625c2.362-1.32 4.53-2.961 6.444-4.874l172.735-172.733c1.252-1.252 3.1-1.716 4.783-1.168 38.515 12.543 82.522 3.516 113.126-27.089 29.293-29.293 38.818-70.864 28.582-108.146z" fill="#ddeafb"/></g></g><g><path d="m283.32 385.171 68.902 68.902c17.375 17.375 39.154 29.69 62.999 35.624l7.966 1.982c4.927 1.226 10.136-.22 13.726-3.81l16.421-16.421c3.59-3.59 5.036-8.799 3.81-13.726l-1.982-7.966c-5.933-23.845-18.249-45.624-35.624-62.999l-68.902-68.902c-5.835-5.835-15.296-5.835-21.132 0l-46.185 46.185c-5.834 5.835-5.834 15.296.001 21.131z" fill="#524798"/></g><g><path d="m457.144 457.721-1.982-7.966c-5.933-23.845-18.249-45.624-35.624-62.999l-68.901-68.902c-5.835-5.835-15.297-5.835-21.132 0l-24.259 24.259c5.835-5.835 15.297-5.835 21.132 0l68.901 68.901c17.375 17.375 29.69 39.154 35.624 62.999l1.982 7.966c.759 3.051.491 6.21-.673 9.026 1.731-.716 3.334-1.77 4.701-3.137l16.421-16.421c3.59-3.59 5.036-8.799 3.81-13.726z" fill="#453d81"/></g><g><path d="m507.715 97.879c-1.171-4.265-4.418-7.487-8.685-8.616-4.249-1.127-8.641.06-11.751 3.169l-60.667 60.668c-2.638 2.639-6.933 2.641-9.573 0l-47.43-47.431c-2.639-2.639-2.639-6.933 0-9.573l60.666-60.667c3.11-3.109 4.296-7.501 3.172-11.75-1.112-4.205-4.414-7.533-8.617-8.687-41.09-11.283-85.311.408-115.407 30.504-31.339 31.339-42.536 76.823-29.431 119.084l-49.462 49.462-104.389-104.387c-3.164-3.164-7.555-4.95-12.019-4.834-1.052-.103-1.517-.552-1.609-1.611.091-4.474-1.671-8.854-4.835-12.018l-51.56-51.56c-6.797-6.796-17.856-6.796-24.654 0l-26.366 26.366c-6.797 6.797-6.797 17.857 0 24.654l51.56 51.56c3.163 3.164 7.526 4.954 12.019 4.835 1.053.122 1.518.541 1.61 1.608-.092 4.474 1.67 8.856 4.835 12.02l104.388 104.389-16.408 16.408c-2.918 2.918-2.918 7.648 0 10.567 1.459 1.458 3.371 2.188 5.283 2.188s3.824-.73 5.283-2.188l118.065-118.065c3.266-3.267 4.412-8.01 2.989-12.381-12.162-37.346-2.48-77.782 25.267-105.529 25.195-25.196 61.724-35.625 96.323-27.803l-57.269 57.27c-8.465 8.465-8.465 22.241 0 30.706l47.43 47.431c8.466 8.464 22.24 8.464 30.704 0l57.272-57.273c6.512 28.647.707 58.485-16.21 82.546-2.373 3.376-1.561 8.035 1.815 10.409 3.375 2.372 8.035 1.562 10.409-1.815 20.39-29.002 26.678-65.325 17.252-99.656zm-422.028 52.23c-.302-.302-.47-.72-.461-1.147.093-4.539-1.625-8.808-4.835-12.018-3.211-3.21-7.479-4.953-12.017-4.835-.437-.025-.847-.161-1.15-.463l-51.56-51.56c-.971-.971-.971-2.55 0-3.521l26.366-26.366c.97-.97 2.551-.972 3.522 0l51.56 51.56c.302.302.47.72.462 1.147-.093 4.54 1.625 8.809 4.835 12.019 3.211 3.211 7.491 4.97 12.019 4.835.416.003.845.16 1.147.462l104.388 104.388-29.888 29.888z"/><path d="m358.127 242.717c36.285 11.239 75.863 4.462 106.212-18.269 3.303-2.474 3.974-7.156 1.501-10.459s-7.156-3.974-10.459-1.501c-26.918 20.161-62.158 25.956-94.264 15.5-4.366-1.424-9.111-.28-12.382 2.988l-172.733 172.734c-1.428 1.428-3.044 2.651-4.807 3.636l-22.582 12.625c-9.189 5.137-15.757 13.981-18.02 24.264-.902 4.098-2.946 7.83-5.912 10.796l-30.674 30.674c-.789.79-2.071.79-2.86 0l-54.143-54.142c-.789-.789-.789-2.073-.001-2.861l30.517-30.517c2.966-2.966 6.699-5.011 10.791-5.911l.263-.058c10.282-2.263 19.126-8.831 24.263-18.02l12.879-23.036c.986-1.763 2.21-3.38 3.637-4.807l29.799-29.799c2.918-2.918 2.918-7.648 0-10.567-2.917-2.917-7.648-2.917-10.566 0l-29.799 29.799c-2.399 2.399-4.455 5.117-6.113 8.08l-12.88 23.037c-3.056 5.466-8.317 9.373-14.427 10.718l-.263.057c-6.888 1.516-13.165 4.954-18.151 9.94l-30.517 30.516c-6.614 6.614-6.614 17.377 0 23.994l54.144 54.143c6.615 6.614 17.377 6.614 23.992 0l30.673-30.674c4.988-4.987 8.425-11.263 9.94-18.152 1.346-6.116 5.253-11.377 10.719-14.434l22.581-12.624c2.962-1.656 5.681-3.712 8.082-6.112l71.077-71.077 18.176 18.176c-2.808 3.819-4.348 8.401-4.348 13.23 0 5.987 2.332 11.615 6.565 15.849l68.901 68.901c11.767 11.768 25.378 21.311 40.457 28.365 3.738 1.75 8.185.137 9.933-3.6s.136-8.185-3.601-9.933c-13.5-6.316-25.687-14.861-36.223-25.397l-68.901-68.902c-1.411-1.411-2.188-3.287-2.188-5.282s.777-3.872 2.188-5.282l46.185-46.185c1.411-1.411 3.287-2.188 5.282-2.188 1.996 0 3.872.777 5.283 2.189l68.902 68.901c16.413 16.413 28.051 36.994 33.656 59.519.759 4.081 4.19 11.223.14 14.606l-16.422 16.422c-1.726 1.726-4.272 2.432-6.639 1.843-4.003-1-8.058 1.442-9.054 5.447-.996 4.004 1.443 8.058 5.447 9.054 7.364 1.845 15.4-.351 20.813-5.778l16.422-16.422c8.142-7.516 7.003-19.203 3.794-28.78-6.26-25.157-19.259-48.145-37.591-66.477l-68.901-68.9c-4.234-4.234-9.862-6.566-15.85-6.566-4.829 0-9.411 1.54-13.229 4.348l-18.176-18.176zm-42.053 78.003-29.888 29.888-17.975-17.975 29.888-29.888z"/></g></g></svg>